<svg version="1.2" xmlns="http://www.w3.org/2000/svg" viewBox="0 0 48 48" width="48" height="48">
	<title>trolley-svg</title>
	<style>
		.s0 { fill: #939598 } 
		.s1 { fill: #a8ccba } 
		.s2 { fill: #ffffff } 
	</style>
	<path id="Layer" fill-rule="evenodd" class="s0" d="m38.3 15.3q0.6 0.3 1 0.8 0.5 0.5 0.6 1.2 0.2 0.7 0 1.3l-1.2 5.7q-0.2 1-0.8 1.8-0.5 0.9-1.3 1.6-0.8 0.6-1.8 1-1 0.3-2 0.3h-10.8q0.2 0.4 0.4 0.8 0.3 0.4 0.7 0.7 0.4 0.2 0.8 0.4 0.5 0.1 1 0.1h5.1q0.4 0 0.7 0.3 0.3 0.3 0.3 0.7 0 0.4-0.3 0.7-0.3 0.3-0.7 0.3h-5.1q-0.8 0-1.6-0.2-0.7-0.3-1.4-0.7-0.6-0.5-1.1-1.1-0.4-0.6-0.7-1.4l-2.6-7.5-2.5-7.1-1-3q-0.2-0.4-0.4-0.8-0.3-0.4-0.7-0.7-0.4-0.2-0.8-0.4-0.5-0.1-0.9-0.1h-3.2q-0.4 0-0.7-0.3-0.3-0.3-0.3-0.7 0-0.4 0.3-0.7 0.3-0.3 0.7-0.3h3.2q0.7 0 1.5 0.2 0.7 0.3 1.4 0.7 0.6 0.5 1.1 1.1 0.4 0.6 0.7 1.4l1.3 3.6h4.9q0 0.1-0.1 0.2 0 0.2 0 0.3 0 0.1 0 0.2 0 0.2 0 0.3c0 1.6 0.6 3.1 1.8 4.2 1.1 1.2 2.6 1.8 4.2 1.8 1.6 0 3.1-0.6 4.2-1.8 1.2-1.1 1.8-2.6 1.8-4.2q0-0.1 0-0.3 0-0.1 0-0.2 0-0.1-0.1-0.3 0-0.1 0-0.2h3.1q0.7 0 1.3 0.3zm-0.3 2.7q0-0.1 0-0.2-0.1-0.1-0.1-0.2-0.1-0.1-0.1-0.2-0.1-0.1-0.2-0.2-0.1-0.1-0.2-0.1-0.1-0.1-0.2-0.1-0.1 0-0.3 0h-1c-0.1 1.5-0.7 2.9-1.7 4-0.9 1.2-2.2 2.1-3.6 2.6-1.4 0.4-2.9 0.5-4.3 0.2-1.5-0.3-2.8-1-3.9-2.1q-0.5-0.4-0.9-1-0.4-0.5-0.7-1.1-0.3-0.6-0.5-1.3-0.2-0.6-0.2-1.3h-2.3l1.6 4.4 2 5.6h11.4q0.7 0 1.3-0.2 0.7-0.2 1.2-0.7 0.6-0.4 1-1 0.3-0.6 0.5-1.3l1.2-5.6q0-0.1 0-0.2z"/>
	<path id="Layer" fill-rule="evenodd" class="s0" d="m21.1 33.2q0.6 0.3 1 0.7 0.4 0.4 0.7 1 0.2 0.5 0.2 1.1c0 1.2-0.7 2.3-1.9 2.8-1.1 0.4-2.4 0.2-3.2-0.7-0.9-0.8-1.1-2.1-0.7-3.2 0.5-1.2 1.6-1.9 2.8-1.9q0.6 0 1.1 0.2zm-0.7 3.7q0.2-0.1 0.3-0.2 0.1-0.1 0.2-0.3 0.1-0.2 0.1-0.4c0-0.4-0.2-0.8-0.6-0.9-0.4-0.2-0.8-0.1-1.1 0.2-0.3 0.3-0.4 0.7-0.2 1.1 0.1 0.4 0.5 0.6 0.9 0.6q0.2 0 0.4-0.1z"/>
	<path id="Layer" fill-rule="evenodd" class="s0" d="m35.1 33.2q0.6 0.3 1 0.7 0.4 0.4 0.7 1 0.2 0.5 0.2 1.1c0 1.2-0.7 2.3-1.9 2.8-1.1 0.4-2.4 0.2-3.2-0.7-0.9-0.8-1.1-2.1-0.7-3.2 0.5-1.2 1.6-1.9 2.8-1.9q0.6 0 1.1 0.2zm-0.7 3.7q0.2-0.1 0.3-0.2 0.1-0.1 0.2-0.3 0.1-0.2 0.1-0.4c0-0.4-0.2-0.8-0.6-0.9-0.4-0.2-0.8-0.1-1.1 0.2-0.3 0.3-0.4 0.7-0.2 1.1 0.1 0.4 0.5 0.6 0.9 0.6q0.2 0 0.4-0.1z"/>
	<path id="Layer" class="s1" d="m28 8c-3.2 0-6.2 1.9-7.4 4.9-1.2 3-0.5 6.5 1.7 8.8 2.3 2.2 5.8 2.9 8.8 1.7 3-1.2 4.9-4.2 4.9-7.4q0-1.6-0.6-3.1-0.6-1.4-1.7-2.6-1.2-1.1-2.6-1.7-1.5-0.6-3.1-0.6z"/>
	<path id="Layer" class="s2" d="m30.5 15h-1.5v-1.5q0-0.4-0.3-0.7-0.3-0.3-0.7-0.3-0.4 0-0.7 0.3-0.3 0.3-0.3 0.7v1.5h-1.5q-0.4 0-0.7 0.3-0.3 0.3-0.3 0.7 0 0.4 0.3 0.7 0.3 0.3 0.7 0.3h1.5v1.5q0 0.4 0.3 0.7 0.3 0.3 0.7 0.3 0.4 0 0.7-0.3 0.3-0.3 0.3-0.7v-1.5h1.5q0.4 0 0.7-0.3 0.3-0.3 0.3-0.7 0-0.4-0.3-0.7-0.3-0.3-0.7-0.3z"/>
</svg>